<svg width="59" height="57" viewBox="0 0 59 57" fill="none" xmlns="http://www.w3.org/2000/svg">
<path d="M29.5 0.442413C25.626 0.442413 21.7899 1.16402 18.2108 2.56603C14.6317 3.96803 11.3797 6.02299 8.64035 8.61356C3.10803 13.8455 0 20.9414 0 28.3405C0 35.7395 3.10803 42.8355 8.64035 48.0674C11.3797 50.6579 14.6317 52.7129 18.2108 54.1149C21.7899 55.5169 25.626 56.2385 29.5 56.2385C37.3239 56.2385 44.8273 53.2993 50.3596 48.0674C55.892 42.8355 59 35.7395 59 28.3405C59 24.6768 58.237 21.0491 56.7544 17.6643C55.2719 14.2796 53.099 11.2041 50.3596 8.61356C47.6203 6.02299 44.3683 3.96803 40.7892 2.56603C37.2101 1.16402 33.374 0.442413 29.5 0.442413ZM11.8 14.3914H47.2V19.971H11.8V14.3914ZM11.8 25.5507H47.2V31.1303H11.8V25.5507ZM11.8 36.7099H47.2V42.2895H11.8V36.7099Z" fill="#F8F8F8"/>
</svg>
